<?xml version="1.0" encoding="utf-8"?>
<!-- Generator: Adobe Illustrator 24.0.1, SVG Export Plug-In . SVG Version: 6.00 Build 0)  -->
<svg version="1.1" id="Слой_1" xmlns="http://www.w3.org/2000/svg" xmlns:xlink="http://www.w3.org/1999/xlink" x="0px" y="0px"
	 viewBox="0 0 513.96 612.16" style="enable-background:new 0 0 513.96 612.16;" xml:space="preserve">
<style type="text/css">
	.st0{fill:#16386C;}
</style>
<g>
	<path class="st0" d="M86.26,268.85c1.99-1.01,3.69-0.59,5.32-0.59c27.65-0.03,55.31-0.02,82.96-0.02c6.22,0,6.26-0.05,3.11-5.6
		c-3.49-6.16-5.1-12.86-5.15-19.84c-0.15-18.74,0-37.48-0.1-56.23c-0.02-2.93,0.79-4.26,3.9-4.01c4.42,0.35,10.04-1.75,12.98,0.78
		c3.06,2.64,1,8.38,1.05,12.76c0.15,13.06,0.11,26.12,0.04,39.17c-0.02,3.63,0.99,6.95,2.23,10.27c0.55,1.46,1.47,2.26,3.1,2.19
		c1.5-0.07,2.06-1.04,2.55-2.26c1.38-3.44,2.48-6.89,2.47-10.68c-0.05-21.2,0-42.4-0.05-63.6c-0.01-2.44-0.29-4.91-0.7-7.32
		c-1.4-8.15-4.21-10.88-12.46-11.31c-3.35-0.18-4.86-1.08-4.33-4.54c0.16-1.05,0.01-2.15,0.03-3.22c0.05-3.68-0.92-7.82,0.46-10.92
		c1.51-3.39,6.35-1.67,9.59-2.87c3.42-1.27,5.3-3.31,5.73-6.95c0.94-7.97,0.46-15.96,0.49-23.93c0.05-14.29-0.08-28.57-0.16-42.86
		c-0.01-1.23-0.09-2.45-0.2-3.67c-0.23-2.58-0.28-6.35-3.15-6.3c-3.3,0.06-5.31,3.41-5.53,6.88c-0.25,3.98-0.08,7.98-0.07,11.98
		c0.01,10.29,0.04,20.59,0.02,30.88c-0.01,5.44-1.29,6.69-6.81,6.85c-10.56,0.31-11.19-0.22-11.1-10.96
		c0.12-13.35-1.12-26.74,0.76-40.03c0.81-5.75,2.53-11.37,3.63-17.08c1.58-8.24,8.01-10.33,14.82-11.51
		c3.88-0.67,7.92-0.47,11.86,0.64c5.4,1.52,9.2,4.51,11.11,9.97c2.2,6.29,3.54,12.66,3.64,19.35c0.31,21.81,0.38,43.62-0.03,65.43
		c-0.16,8.5-2.17,15.86-10.93,19.49c-1.03,0.43-1.99,1-2.04,2.24c-0.07,1.65,1.36,1.88,2.48,2.26c6.07,2.07,9.17,6.5,9.83,12.67
		c1.4,13.01,0.71,26.09,0.87,39.13c0.19,16.59-0.11,33.18-0.23,49.77c-0.05,6.43-1.56,12.41-5.09,17.91
		c-2.4,3.74-1.99,4.22,2.5,4.31c11.81,0.24,11.82,0.24,11.82-11.7c0-74.82,0-149.63,0-224.45c0-6.31,0.01-6.31,6.1-6.32
		c3.53,0,7.1,0.29,10.59-0.07c4.17-0.43,5.15,1.18,5.12,5.16c-0.16,29.19-0.11,58.38-0.11,87.57c0,2.15,0.08,4.3,0.1,6.45
		c0.03,4.05,2.03,5.61,6.09,5.63c4.11,0.02,5.49-1.31,5.47-5.62c-0.18-31.34-0.03-62.68-0.19-94.02c-0.02-3.98,0.87-5.55,5.07-5.17
		c4.11,0.38,8.31,0.31,12.43,0.01c3.61-0.26,4.62,1.21,4.32,4.52c-0.21,2.29-0.05,4.61-0.05,6.91c0,75.28-0.01,150.55,0.05,225.83
		c0,1.75-1.3,4.57,1.55,5.05c3.1,0.52,6.43,0.86,9.5-0.36c1.1-0.43,0.68-1.93,0.69-2.96c0.04-4.45,0.15-8.91-0.01-13.36
		c-0.09-2.47,0.81-3.34,3.22-3.95c9.52-2.39,11.89-5.42,13.14-15.16c1.82-14.16,0.51-28.25-1.34-42.24
		c-2.43-18.42-4.01-36.91-6.09-55.36c-2.3-20.42-4.9-40.82-6.93-61.26c-1.36-13.73-3.8-27.35-4.34-41.17
		c-0.15-3.78,0.97-5.27,4.88-4.93c3.51,0.31,7.07,0.17,10.59,0.01c2.65-0.12,3.85,0.72,4.04,3.54c1.11,15.92,2.37,31.83,3.6,47.74
		c1.45,18.67,2.92,37.34,4.43,56c0.09,1.1-0.28,2.55,1.68,3.2c1.28-3.48,1.06-7.14,1.29-10.63c2.07-31.41,3.95-62.82,5.85-94.24
		c0.38-6.21,0.3-6.25,6.4-6.19c3.81,0.04,8.8-1.2,11.12,0.72c2.49,2.06,0.68,7.23,0.38,10.95c-1.29,15.75-2.89,31.47-4.47,47.2
		c-3.22,32.06-5.94,64.16-8.6,96.27c-2.01,24.3-4.75,48.54-8.04,72.71c-0.65,4.74-3.21,8.16-6.85,11.01
		c-0.87,0.68-2.64,1.06-2.02,2.62c0.58,1.44,2.19,0.73,3.31,0.73c14.9,0.07,29.8,0.08,44.7,0.08c19.2,0.01,38.41,0,57.61,0
		c1.65,0,3.29,0,5.88,0c-4.84,7.3-9.07,13.99-13.65,20.44c-2.42,3.41-1.54,4.41,2.23,4.65c17.31,1.09,33.07,6.5,46.74,17.35
		c15.77,12.52,24.29,29.34,28.37,48.69c4.99,23.71,3.04,46.55-10,67.46c-13.13,21.07-40.22,43.66-74.75,38.36
		c-7.93-1.22-15.5-3.69-22.73-7.19c-6.26-3.04-6.28-3.01-6.28,4.12c-0.01,30.88,0,61.76-0.01,92.64c0,1.08-0.1,2.16,0.01,3.22
		c0.31,2.98-1.89,3.98-3.96,3.97c-2.39-0.01-1.24-2.39-1.24-3.64c-0.11-34.26-0.18-68.52-0.12-102.77c0.01-3.57-0.88-6.62-2.87-9.47
		c-2.64-3.77-5.07-7.71-7.86-11.36c-12.42-16.26-14.11-34.15-8.37-53.25c3.27-10.89,8.97-20.47,15.52-29.63
		c1.02-1.43,3.27-3.06,2.17-4.68c-1.25-1.85-3.68-0.36-5.53,0.06c-35.64,8.08-71.73,12.2-108.27,11.97
		c-38.41-0.25-76.21-5.37-113.44-14.8c-1.31-0.33-3.11-1.94-4.06-0.06c-0.8,1.57,1.13,2.64,2.1,3.75
		c7.75,8.79,15.14,17.87,19.22,29.03c8.55,23.38,3.7,44.65-10.6,64.34c-1.36,1.87-3.42,3.47-3.51,6.63c3.17-0.76,5.11-2.7,7.07-4.47
		c8.79-7.96,14.21-18.01,17.6-29.22c1.01-3.35,1.65-4.77,4.93-1.45c10.91,11.07,24.98,13.94,39.55,12.36
		c25.31-2.75,50.63-1.8,75.95-2c5.79-0.05,11.3,1.17,16.18,4.46c4.5,3.03,6.85,7.01,5.17,12.58c-3.13,10.37-2.03,21.04-2.09,31.59
		c-0.19,35.18-0.18,70.36-0.02,105.54c0.02,3.9-1.09,5.53-4.87,5.93c-3.81,0.4-7.57,1.2-11.35,1.85c-2.13,0.37-3.17-0.36-3.1-2.65
		c0.08-2.61-0.02-5.22-0.01-7.83c0.05-39.02,0.13-78.04,0.14-117.06c0-6.74,1.01-13.01,5.13-18.69c3.08-4.25,1.21-7.37-4.05-7.61
		c-6.41-0.29-11.51,4.37-11.41,11.16c0.12,7.67,0.62,15.35,1.42,22.97c0.81,7.66,0.86,15.33,0.87,23
		c0.07,31.03-0.08,62.06,0.03,93.1c0.01,3.81-0.77,5.6-4.98,5.55c-4.9-0.05-9.83,0.39-14.7,0.98c-3.78,0.46-4.63-0.98-4.61-4.54
		c0.14-26.88,0.01-53.77,0.13-80.65c0.08-17.18-0.78-34.4,1.72-51.51c0.58-3.94,0.67-7.85,3.81-11c1.9-1.91,1.28-3.87-1.41-5
		c-5.69-2.4-10.8,0.21-11.58,6.28c-0.49,3.79-0.49,7.65-0.5,11.48c-0.03,43.02-0.02,86.03-0.02,129.05c0,6.04-0.02,6.1-5.98,6
		c-4.91-0.08-9.82-0.33-14.74-0.48c-2.07-0.06-3.44-0.55-3.44-3.14c0.07-45.6-2.32-91.24,2.5-136.75c0.33-3.1,1.3-6.01,2.36-8.87
		c1.08-2.93-0.19-3.55-2.71-3.52c-3.97,0.05-7.83,4.35-8.17,9.65c-0.3,4.59-0.26,9.21-0.26,13.82
		c-0.04,40.56-0.07,81.11-0.09,121.67c0,6.31,0,6.37-6.08,5.65c-5.03-0.6-10.02-1.5-15.05-2.01c-3.69-0.37-4.98-1.78-4.95-5.79
		c0.21-26.58,0.11-53.15,0.05-79.73c0-1.52,0.81-3.44-1.44-4.5c-1.32,0.85-0.67,2.2-0.68,3.25c-0.04,26.88-0.08,53.77,0.03,80.65
		c0.01,3.58-0.56,5.15-4.56,3.81c-3.91-1.3-9.1-0.9-11.71-3.38c-2.72-2.59-0.74-7.84-0.95-11.92c-0.67-13.65-1.2-27.31-1.81-40.97
		c-0.04-0.99,0.43-2.35-0.92-2.8c-1.26-0.42-1.9,0.74-2.58,1.51c-2.6,2.94-3.27,6.51-3.26,10.28c0.03,12.44,0.09,24.89,0.02,37.33
		c-0.01,1.39,1.03,4.19-1.45,3.89c-2.45-0.3-6.41,0.33-6.67-3.93c-0.35-5.67-0.42-11.35-0.62-17.03c-0.05-1.38,0.13-2.83-0.24-4.12
		c-0.6-2.08-1.78-4.62-3.95-4.54c-3.02,0.11-1.66,3.12-1.72,4.82c-0.2,5.52-0.01,11.06-0.16,16.59c-0.03,1.25,1.1,3.67-1.36,3.54
		c-2.02-0.11-4.83-0.24-4.8-3.67c0.05-5.53,0.01-11.06-0.05-16.59c-0.03-2.39,0.47-6.29-2.12-6.25c-2.8,0.04-2.46,3.93-2.47,6.48
		c-0.03,5.37-0.01,10.73-0.01,16.19c-4.81-0.24-6.37-2.36-6.34-7c0.19-32.87,0.1-65.75,0.1-98.63c0-5.54-0.23-5.77-5.41-3.86
		c-8.5,3.13-16.97,6.3-26.07,7.29c-23.13,2.51-42.02-6.33-58.26-21.95c-14.79-14.23-22.48-31.95-24.85-52.13
		c-3.72-31.64,5.79-58.44,29.63-79.83c12.38-11.11,27.19-16.32,43.63-17.45c2.34-0.16,5.74,0.75,6.75-1.55
		c0.95-2.17-1.89-4.19-3.18-6.18C93.98,280.3,90.12,274.64,86.26,268.85z M256,275.04c0,0.01,0,0.02,0,0.03
		c-20.58,0-41.16,0-61.75,0c-30.72,0.01-61.44,0.05-92.16-0.02c-3.69-0.01-4.67,0.7-2.81,4.4c4.3,8.57,11.57,10.43,20.33,10.42
		c92-0.16,184.01-0.18,276.01-0.26c2.15,0,4.31-0.01,6.44-0.24c4.57-0.5,8.02-2.69,10.29-6.81c3.75-6.81,3.4-7.52-4.29-7.52
		C357.37,275.04,306.68,275.04,256,275.04z M31.36,399.9c2.15-1.24,1.69-2.59,1.8-3.74c1.86-19.05,7.36-36.9,17.46-53.26
		c11.47-18.59,27.26-31.09,49.23-34.44c12.33-1.88,24.82-0.94,37.25-0.93c91.1,0.08,182.2,0.05,273.3,0.04
		c1.54,0,3.07-0.03,4.61-0.09c12.95-0.51,25.78-0.2,38.01,4.91c0.29,0.12,0.74-0.15,1.23-0.26c-0.27-0.58-0.38-1.04-0.66-1.38
		c-0.58-0.71-1.22-1.38-1.87-2.03c-7.94-8.03-17.76-11.02-28.83-11.01c-105.24,0.05-210.47,0.15-315.71-0.04
		c-19.46-0.03-35.59,7.12-49.32,20.2c-15.65,14.91-23.03,34.06-26.79,54.85C29.47,381.67,29.31,390.62,31.36,399.9z M435.45,376.4
		c-2.3-0.9-3.96-1.62-5.67-2.19c-0.95-0.32-2-1.35-2.96-0.33c-1.04,1.09,0.19,1.97,0.69,2.8c5.65,9.31,7.39,18.79,1.39,28.66
		c-0.47,0.77-1.18,1.69-0.52,2.51c0.93,1.15,1.96,0.15,2.86-0.29c7.41-3.58,10.78-11.31,8.83-20.74c-0.72-3.48-1.43-6.91-0.79-10.47
		c0.17-0.97-0.34-2.46,1.15-2.56c0.66-0.04,1.59,0.87,2.07,1.57c3.23,4.67,4.81,9.95,4.97,15.57c0.38,12.55-9.21,24.37-22.84,28.4
		c-12.94,3.83-26.34-1.48-33.73-13.52c-2.16-3.52-3.96-7.28-5.92-10.93c-0.37-0.68-0.74-1.45-1.67-1.22
		c-0.98,0.24-0.87,1.14-0.82,1.88c0.15,2.45,0.29,4.9,0.51,7.35c1.12,12.29,9.32,21.56,21.48,23.74c8.28,1.49,16.51,0.63,24.57-1.85
		c16.36-5.04,26.96-19.47,27.18-36.54c0.13-9.82-3.31-18.62-6.75-27.52c-1.34-3.48-2.69-4.47-5.75-1.67c-1,0.91-2.01,3.23-4.12,1.4
		c-7.51-6.51-16.82-7.64-26.13-8.98c-28.93-4.16-48.8,24.55-49.95,43.54c-1.31,21.55,16.55,42.71,35.14,48.44
		c0.68,0.21,1.49,0.49,2.01-0.56c-0.35-1.82-2.15-2.41-3.35-3.47c-10.83-9.52-19.48-20.45-22.79-34.86
		c-6.09-26.54,13.38-48.95,39.83-45.88C424,359.79,433.64,367.55,435.45,376.4z M66.56,399.26c-0.28-5.86,0.21-11.65,1.48-17.38
		c5.15-23.11,23.07-35.67,46.45-32.44c4.4,0.61,8.72,1.7,13.1,2.49c0.99,0.18,2.29,0.68,2.92-0.5c0.71-1.32-0.59-1.85-1.43-2.44
		c-10.51-7.37-21.91-10.01-34.49-6.53c-32.56,9.03-47.73,48.18-30.15,77.83c10.32,17.41,30.9,27.3,48.81,23.01
		c18.75-4.5,30.34-17.2,36.96-34.58c3.75-9.85,1.45-19.37-4.73-27.87c-0.93-1.29-1.93-3.7-3.65-2.8c-2.04,1.06,0.2,2.8,0.6,4.2
		c0.42,1.46,1.2,2.82,1.78,4.24c5.3,12.98,1.62,32.17-8.21,41.11c-8.18,7.45-17.8,10.94-29.08,10.25
		C80.81,436.23,67.39,423.57,66.56,399.26z M249.57,209.78c0,2.46,0,4.91,0,7.37c0,14.74-0.03,29.47,0.02,44.21
		c0.02,5.17,3.17,7.58,7.73,5.99c3.64-1.27,3.17-4.52,3.17-7.37c-0.02-30.55-0.09-61.09-0.16-91.64c-0.01-3.99,0.02-7.98-0.12-11.97
		c-0.1-2.92-1.72-4.46-4.69-4.55c-2.97-0.09-5.14,1.01-5.76,4.1c-0.27,1.33-0.19,2.75-0.19,4.13
		C249.57,176.63,249.57,193.21,249.57,209.78z M418.76,438.75c18.14-0.04,33.37-7.9,44.26-22.46c11.79-15.77,9.87-31.9,1.39-47.53
		c-0.41-0.76-0.75-1.97-1.89-1.57c-1.44,0.5-0.7,1.75-0.57,2.76c0.66,5.17,1.59,10.33,1.91,15.52
		c1.42,22.72-12.42,41.12-34.53,46.24c-7.23,1.67-14.56,2.11-21.94,2.22c-0.96,0.02-2.46-0.58-2.78,0.79
		c-0.38,1.65,1.35,1.84,2.38,2.23C410.77,438.36,414.75,438.74,418.76,438.75z M427.15,391.51c-0.09-0.87-0.21-2.1-0.33-3.32
		c-1.16-11.21-10.09-18.77-20.66-17.48c-10.71,1.3-19.05,12.21-17.44,22.79c0.3,2.01,1,3.87,2.16,5.52
		c0.59,0.83,1.08,2.06,2.42,1.68c1.1-0.31,0.92-1.46,1.06-2.33c0.47-3.03,0.9-6.07,1.36-9.1c1.34-8.95,3.62-10.92,12.65-10.96
		c6.58-0.03,10.37,2.47,11.55,7.62c1.58,6.91-0.49,11.58-6.59,14.49c-1.93,0.92-4.08,1.39-6,2.32c-1.56,0.75-4.65,0.37-3.76,3.45
		c0.73,2.54,2.83,4.02,5.56,4.11C418.39,410.59,427.43,401.32,427.15,391.51z M124.48,394.2c-0.04-9.94-6.98-17.33-16.05-18.16
		c-7.85-0.72-15.45,4.36-16.78,11.22c-1.85,9.59,3.08,18.58,11.82,21.19c2.8,0.83,5.88,1.2,7.93,3.34c1.88,1.97,3.15,1.09,4.65-0.09
		C122.1,406.98,123.98,400.36,124.48,394.2z M112.51,365.94c-11.9-4.16-28.52,2.96-32.4,12.87c-3.26,8.33-0.78,18.23,6.03,21.32
		C80.9,378.49,93.18,369.83,112.51,365.94z M109.82,419.65c6.79,1.63,13.27-0.25,15.59-4.04c0.49-0.79,1.12-1.67,0.59-2.53
		c-0.66-1.06-1.67-0.33-2.42,0.01C119.19,415.08,114.49,416.43,109.82,419.65z"/>
	<path class="st0" d="M156.27,352.91c67.37,17.2,133.96,21.51,200.43-1.22c-1.58,10.61-11.29,19.99-23.09,22.51
		c-7.67,1.64-15.48,2.39-23.3,2.65c-5.4,0.18-9.1,1.75-10.59,7.39c-0.65,2.47-2.28,4.68-3.32,7.06c-1.48,3.4-3.04,2.13-4.55,0.12
		c-1.76-2.36-1.63-5.22-1.85-7.96c-0.35-4.23-2.13-6.41-6.81-5.85c-5.02,0.61-10.09,0.83-15.15,0.99c-2.68,0.09-3.75,1.34-4.24,3.81
		c-0.72,3.61-1.67,7.18-2.62,10.74c-1.09,4.06-2.22,4.38-5.11,1.49c-2.73-2.73-4.92-5.74-6.29-9.48c-2.24-6.1-12.44-9.48-18.02-6.29
		c-1.24,0.71-1.26,2.03-1.57,3.18c-0.89,3.25-1.57,6.58-2.64,9.77c-1.76,5.27-5.22,6.1-9.38,2.32c-2.63-2.39-4.81-5.16-6.3-8.43
		c-1.87-4.08-4.7-7.15-9.1-8.58c-0.72-0.23-1.71-0.49-1.99-1.04c-2.79-5.49-7.01-4.43-11.56-2.84c-1.71,0.6-3.81,0.71-5.41-0.27
		c-3.31-2.03-6.24-4.85-10.39-1.37c-0.86,0.73-2.66-0.37-3.65-1.42C164.94,365.08,160.5,359.64,156.27,352.91z"/>
	<path class="st0" d="M338.02,508.4c0,20.59,0.03,41.17-0.05,61.76c-0.01,1.87,1.11,4.5-1.08,5.47c-3.04,1.36-6.42,2.01-9.7,2.76
		c-0.95,0.22-0.99-0.93-1.03-1.68c-0.05-0.92-0.03-1.84-0.03-2.76c0-39.18,0.01-78.35-0.02-117.53c0-3.58,0.42-7.04,1.98-10.3
		c0.81-1.7,1.96-3.13,3.63-4.06c4.55-2.53,6.29-1.53,6.29,3.65C338.02,466.62,338.02,487.51,338.02,508.4z"/>
	<path class="st0" d="M193.29,415.71c2.88-2.65,5.57-3.74,8.82-3.87c35.73-1.39,71.48-1.84,107.23-1.29
		c3.79,0.06,7.09,1.63,10.48,3.76c-3.61,2.39-7.13,3.92-11.29,3.96c-33.15,0.38-66.3,0.84-99.45,1.23
		C203.71,419.57,198.43,419.06,193.29,415.71z"/>
	<path class="st0" d="M177.42,386.09c2.54,4.55,4.43,8.4,6.74,11.97c2.32,3.59,5.77,5.39,10.2,5c5.37-0.47,7.24-2.45,7.32-7.91
		c0.02-1.07-0.13-2.19,0.12-3.21c0.46-1.97,1.35-4.31,3.21-4.72c1.86-0.41,2.97,1.83,3.83,3.46c3.96,7.55,10.04,11.27,18.68,10.93
		c2.67-0.11,5.38,0.54,9.2,0.96c-6.51,5.34-13.12,5.91-18.87,2.98c-6.37-3.24-10.73-3.53-16.88,1.04
		c-7.19,5.34-19.54-0.99-22.89-10.58C177.08,393.17,176.38,390.18,177.42,386.09z"/>
	<path class="st0" d="M260.64,405.76c-14.78,4.18-19.23-5.3-19.28-14.23c-0.01-1.69,0.41-3.71,2.05-4.31
		c1.42-0.52,2.1,1.44,2.96,2.4C251.11,394.9,255.77,400.24,260.64,405.76z"/>
	<path class="st0" d="M185.06,384.1c0.6-2.28-1.01-5.4,2.9-5.37c3.27,0.02,7.24-1.41,7.68,4.26c0.28,3.63,1.35,7.2,2.16,10.78
		c0.61,2.71-0.56,3.54-3.11,3.55c-4.52,0.01-7.44-2.24-8.69-7.21C185.48,388.05,185.33,385.9,185.06,384.1z"/>
	<path class="st0" d="M293.21,401.43c-7.28,2.4-14.25-0.79-17.14-7.74c-0.82-1.96-1.45-4.09-1.67-6.19
		c-0.17-1.62-2.28-4.24,1.11-4.79c2.54-0.41,5.57-1.11,6.42,3.06c0.66,3.27,1.58,6.62,4.15,9.08
		C288.36,397.06,290.75,399.17,293.21,401.43z"/>
	<path class="st0" d="M340.69,386.3c-0.71,3.02-0.34,7.87-3.76,8.77c-2.91,0.77-3.11-4.17-4.77-6.4c-0.45-0.61-0.87-1.31-1.05-2.04
		c-0.45-1.77-3-3.35-0.96-5.35c2.43-2.38,4.85,0.11,7.22,0.55C339.47,382.22,341.07,383.44,340.69,386.3z"/>
	<path class="st0" d="M330.27,403.91c-5.94-1.04-8.23-4.64-9.59-9.06c-0.38-1.22-0.84-2.86,1.22-3.29c1.62-0.34,3.35-0.92,4.19,1.39
		C327.33,396.37,328.67,399.75,330.27,403.91z"/>
	<path class="st0" d="M267.1,399.2c0.17-2.81-0.23-6.33,3-6.47c2.11-0.09,3.06,3.14,3.14,5.52c0.11,3.15-1.96,5.21-4.7,5.14
		C265.83,403.31,267.8,400.42,267.1,399.2z"/>
	<path class="st0" d="M107.48,379.77c5.78,0.05,10.52,4.78,10.54,10.54c0.02,5.51-5.73,11.29-11.26,11.31
		c-5.58,0.02-11.18-6.05-11.1-12.02C95.74,384.18,101.1,379.72,107.48,379.77z"/>
</g>
</svg>
